<?xml version="1.0" encoding="UTF-8" standalone="no"?>
<svg
   xmlns:dc="http://purl.org/dc/elements/1.1/"
   xmlns:cc="http://creativecommons.org/ns#"
   xmlns:rdf="http://www.w3.org/1999/02/22-rdf-syntax-ns#"
   xmlns:svg="http://www.w3.org/2000/svg"
   xmlns="http://www.w3.org/2000/svg"
   xmlns:sodipodi="http://sodipodi.sourceforge.net/DTD/sodipodi-0.dtd"
   xmlns:inkscape="http://www.inkscape.org/namespaces/inkscape"
   version="1.1"
   id="Layer_1"
   x="0px"
   y="0px"
   viewBox="0 0 510 510"
   xml:space="preserve"
   sodipodi:docname="facebook.svg"
   inkscape:version="1.0.1 (3bc2e813f5, 2020-09-07)"
   width="510"
   height="510"><metadata
   id="metadata50"><rdf:RDF><cc:Work
       rdf:about=""><dc:format>image/svg+xml</dc:format><dc:type
         rdf:resource="http://purl.org/dc/dcmitype/StillImage" /><dc:title></dc:title></cc:Work></rdf:RDF></metadata><defs
   id="defs48"><inkscape:path-effect
     effect="fillet_chamfer"
     id="path-effect902"
     is_visible="true"
     lpeversion="1"
     satellites_param="F,0,0,1,0,0,0,1 @ F,0,0,1,0,36.854181,0,1 @ F,0,0,1,0,0,0,1"
     unit="px"
     method="auto"
     mode="F"
     radius="50"
     chamfer_steps="1"
     flexible="false"
     use_knot_distance="true"
     apply_no_radius="true"
     apply_with_radius="true"
     only_selected="false"
     hide_knots="false" /></defs><sodipodi:namedview
   pagecolor="#ffffff"
   bordercolor="#666666"
   borderopacity="1"
   objecttolerance="10"
   gridtolerance="10"
   guidetolerance="10"
   inkscape:pageopacity="0"
   inkscape:pageshadow="2"
   inkscape:window-width="1920"
   inkscape:window-height="1016"
   id="namedview46"
   showgrid="false"
   inkscape:snap-page="true"
   showguides="false"
   inkscape:snap-bbox="true"
   inkscape:bbox-paths="true"
   inkscape:bbox-nodes="true"
   inkscape:snap-bbox-edge-midpoints="true"
   inkscape:snap-bbox-midpoints="true"
   inkscape:object-paths="true"
   inkscape:snap-intersection-paths="true"
   inkscape:snap-smooth-nodes="true"
   inkscape:snap-midpoints="true"
   inkscape:zoom="1.1458016"
   inkscape:cx="249.76349"
   inkscape:cy="242.97613"
   inkscape:window-x="0"
   inkscape:window-y="0"
   inkscape:window-maximized="1"
   inkscape:current-layer="g900"
   fit-margin-top="0"
   fit-margin-left="0"
   fit-margin-right="0"
   fit-margin-bottom="0"
   borderlayer="true"
   inkscape:pagecheckerboard="true" />

<g
   id="g15"
   transform="translate(10,10)">
</g>
<g
   id="g17"
   transform="translate(10,10)">
</g>
<g
   id="g19"
   transform="translate(10,10)">
</g>
<g
   id="g21"
   transform="translate(10,10)">
</g>
<g
   id="g23"
   transform="translate(10,10)">
</g>
<g
   id="g25"
   transform="translate(10,10)">
</g>
<g
   id="g27"
   transform="translate(10,10)">
</g>
<g
   id="g29"
   transform="translate(10,10)">
</g>
<g
   id="g31"
   transform="translate(10,10)">
</g>
<g
   id="g33"
   transform="translate(10,10)">
</g>
<g
   id="g35"
   transform="translate(10,10)">
</g>
<g
   id="g37"
   transform="translate(10,10)">
</g>
<g
   id="g39"
   transform="translate(10,10)">
</g>
<g
   id="g41"
   transform="translate(10,10)">
</g>
<g
   id="g43"
   transform="translate(10,10)">
</g>
<g
   inkscape:groupmode="layer"
   id="layer1"
   inkscape:label="Layer 1"
   sodipodi:insensitive="true"
   style="display:none;opacity:0.328573"
   transform="translate(10,10)"><g
     id="XMLID_21_">
	<g
   id="g6">
		<path
   style="fill:#ffffff"
   d="m 345,190 -10,70 H 285 V 435 H 195 V 270 h -50 v -80 h 60 v -70 c 0,0 0,-70 70,-70 h 60 v 70 h -40 c 0,0 -10,0 -10,10 0,10 0,60 0,60 z"
   id="path2" />
		<path
   style="fill:none"
   d="m 480,30 v 430 c 0,10.996 -9.004,20 -20,20 H 30 C 19.004,480 10,470.996 10,460 V 30 C 10,18.999 19.004,10 30,10 h 430 c 10.996,0 20,8.999 20,20 z m -145,230 10,-70 h -60 c 0,0 0,-50 0,-60 0,-10 10,-10 10,-10 h 40 V 50 h -60 c -70,0 -70,70 -70,70 v 70 h -60 v 80 h 50 v 165 h 90 V 260 Z"
   id="path4" />
	</g>
	<g
   id="g12">
		<path
   style="fill:#231f20"
   d="M 460,0 H 30 C 13.458,0 0,13.458 0,30 v 430 c 0,16.542 13.458,30 30,30 h 430 c 16.542,0 30,-13.458 30,-30 V 30 C 490,13.458 476.542,0 460,0 Z m 10,460 c 0,5.514 -4.486,10 -10,10 H 30 c -5.514,0 -10,-4.486 -10,-10 V 30 c 0,-5.514 4.486,-10 10,-10 h 430 c 5.514,0 10,4.486 10,10 z"
   id="path8" />
		<path
   style="fill:#231f20"
   d="m 345,180 h -50 v -49.965 c 0.076,-0.015 0.151,-0.027 0.219,-0.035 H 335 c 5.523,0 10,-4.477 10,-10 V 50 c 0,-5.522 -4.477,-10 -10,-10 H 275 C 233.732,40 214.05,62.039 204.806,80.528 195.111,99.916 195,119.189 195,120 v 60 h -50 c -5.523,0 -10,4.477 -10,10 v 80 c 0,5.523 4.477,10 10,10 h 40 v 155 c 0,5.523 4.477,10 10,10 h 90 c 5.523,0 10,-4.477 10,-10 V 270 h 40 c 4.977,0 9.196,-3.659 9.899,-8.586 l 10,-70 c 0.41,-2.87 -0.445,-5.776 -2.345,-7.966 C 350.655,181.258 347.899,180 345,180 Z m -18.673,70 H 285 c -5.523,0 -10,4.477 -10,10 V 425 H 205 V 270 c 0,-5.522 -4.477,-10 -10,-10 h -40 v -60 h 50 c 5.523,0 10,-4.477 10,-10 v -69.969 c 0.001,-0.158 0.189,-15.92 7.977,-31.119 C 232.81,69.728 250.313,60 275,60 h 50 v 50 h -30 c -9.695,0 -20,7.009 -20,20 v 60 c 0,5.523 4.477,10 10,10 h 48.47 z"
   id="path10" />
	</g>
</g></g><g
   inkscape:groupmode="layer"
   id="layer2"
   inkscape:label="Layer 2"
   style="opacity:1"
   transform="translate(10,10)"><g
     id="g900"
     style="stroke-width:10;stroke-miterlimit:4;stroke-dasharray:none"><rect
       style="fill:none;stroke:#ffd700;stroke-width:20;stroke-linecap:round;stroke-linejoin:round;stroke-miterlimit:4;stroke-dasharray:none;stroke-opacity:1"
       id="rect884"
       width="490"
       height="490"
       x="0"
       y="0"
       rx="50"
       ry="50" /><path
       style="fill:none;stroke:#ffd700;stroke-width:20;stroke-linecap:round;stroke-linejoin:miter;stroke-miterlimit:4;stroke-dasharray:none;stroke-opacity:1"
       d="M 318.03877,452.16367 V 165.0679 a 37.207674,37.207674 134.72653 0 1 36.8525,-37.20598 l 60.75475,-0.57997"
       id="path893"
       inkscape:path-effect="#path-effect902"
       inkscape:original-d="m 320.51491,-5 v 0 h 97.60725" /><path
       style="fill:none;stroke:#ffd700;stroke-width:20;stroke-linecap:round;stroke-linejoin:miter;stroke-miterlimit:4;stroke-dasharray:none;stroke-opacity:1"
       d="m 404.88616,261.92474 h -145.807"
       id="path895" /></g></g></svg>
