<?xml version="1.0" encoding="UTF-8" standalone="no"?>
<svg
   xmlns:dc="http://purl.org/dc/elements/1.1/"
   xmlns:cc="http://creativecommons.org/ns#"
   xmlns:rdf="http://www.w3.org/1999/02/22-rdf-syntax-ns#"
   xmlns:svg="http://www.w3.org/2000/svg"
   xmlns="http://www.w3.org/2000/svg"
   xmlns:sodipodi="http://sodipodi.sourceforge.net/DTD/sodipodi-0.dtd"
   xmlns:inkscape="http://www.inkscape.org/namespaces/inkscape"
   version="1.1"
   id="Capa_1"
   x="0px"
   y="0px"
   viewBox="0 0 509.70622 509.70622"
   xml:space="preserve"
   sodipodi:docname="linkedin.svg"
   inkscape:version="1.0.1 (3bc2e813f5, 2020-09-07)"
   width="509.70621"
   height="509.70621"><metadata
   id="metadata2653"><rdf:RDF><cc:Work
       rdf:about=""><dc:format>image/svg+xml</dc:format><dc:type
         rdf:resource="http://purl.org/dc/dcmitype/StillImage" /><dc:title></dc:title></cc:Work></rdf:RDF></metadata><defs
   id="defs2651"><inkscape:path-effect
     effect="fillet_chamfer"
     id="path-effect3256"
     is_visible="true"
     lpeversion="1"
     satellites_param="F,0,0,1,0,0,0,1 @ F,0,0,1,0,0,0,1 @ F,0,0,1,0,0,0,1 @ F,0,0,1,0,0,0,1 @ F,0,0,1,0,0,0,1"
     unit="px"
     method="auto"
     mode="F"
     radius="0"
     chamfer_steps="1"
     flexible="false"
     use_knot_distance="true"
     apply_no_radius="true"
     apply_with_radius="true"
     only_selected="false"
     hide_knots="false" /></defs><sodipodi:namedview
   pagecolor="#ffffff"
   bordercolor="#666666"
   borderopacity="1"
   objecttolerance="10"
   gridtolerance="10"
   guidetolerance="10"
   inkscape:pageopacity="0"
   inkscape:pageshadow="2"
   inkscape:window-width="1920"
   inkscape:window-height="1016"
   id="namedview2649"
   showgrid="false"
   inkscape:zoom="1.0165916"
   inkscape:cx="175.44067"
   inkscape:cy="245.62738"
   inkscape:window-x="0"
   inkscape:window-y="0"
   inkscape:window-maximized="1"
   inkscape:current-layer="layer6"
   inkscape:snap-page="true"
   inkscape:pagecheckerboard="true"
   fit-margin-top="0"
   fit-margin-left="0"
   fit-margin-right="0"
   fit-margin-bottom="0" />

<g
   id="g2618"
   transform="translate(9.706201,9.706201)">
</g>
<g
   id="g2620"
   transform="translate(9.706201,9.706201)">
</g>
<g
   id="g2622"
   transform="translate(9.706201,9.706201)">
</g>
<g
   id="g2624"
   transform="translate(9.706201,9.706201)">
</g>
<g
   id="g2626"
   transform="translate(9.706201,9.706201)">
</g>
<g
   id="g2628"
   transform="translate(9.706201,9.706201)">
</g>
<g
   id="g2630"
   transform="translate(9.706201,9.706201)">
</g>
<g
   id="g2632"
   transform="translate(9.706201,9.706201)">
</g>
<g
   id="g2634"
   transform="translate(9.706201,9.706201)">
</g>
<g
   id="g2636"
   transform="translate(9.706201,9.706201)">
</g>
<g
   id="g2638"
   transform="translate(9.706201,9.706201)">
</g>
<g
   id="g2640"
   transform="translate(9.706201,9.706201)">
</g>
<g
   id="g2642"
   transform="translate(9.706201,9.706201)">
</g>
<g
   id="g2644"
   transform="translate(9.706201,9.706201)">
</g>
<g
   id="g2646"
   transform="translate(9.706201,9.706201)">
</g>
<g
   inkscape:groupmode="layer"
   id="layer5"
   inkscape:label="Layer 1"
   sodipodi:insensitive="true"
   style="display:none;opacity:0.296043"
   transform="translate(9.706201,9.706201)"><g
     id="g2616">
	<rect
   x="0"
   y="0"
   style="fill:#0084b1"
   width="455.73099"
   height="455.73099"
   id="rect2606" />
	<g
   id="g2614">
		<path
   style="fill:#ffffff"
   d="m 107.255,69.215 c 20.873,0.017 38.088,17.257 38.043,38.234 -0.05,21.965 -18.278,38.52 -38.3,38.043 -20.308,0.411 -38.155,-16.551 -38.151,-38.188 0,-20.985 17.282,-38.105 38.408,-38.089 z"
   id="path2608" />
		<path
   style="fill:#ffffff"
   d="M 129.431,386.471 H 84.71 c -5.804,0 -10.509,-4.705 -10.509,-10.509 V 185.18 c 0,-5.804 4.705,-10.509 10.509,-10.509 h 44.721 c 5.804,0 10.509,4.705 10.509,10.509 v 190.783 c -0.001,5.803 -4.705,10.508 -10.509,10.508 z"
   id="path2610" />
		<path
   style="fill:#ffffff"
   d="m 386.884,241.682 c 0,-39.996 -32.423,-72.42 -72.42,-72.42 h -11.47 c -21.882,0 -41.214,10.918 -52.842,27.606 -1.268,1.819 -2.442,3.708 -3.52,5.658 -0.373,-0.056 -0.594,-0.085 -0.599,-0.075 v -23.418 c 0,-2.409 -1.953,-4.363 -4.363,-4.363 h -55.795 c -2.409,0 -4.363,1.953 -4.363,4.363 V 382.11 c 0,2.409 1.952,4.362 4.361,4.363 l 57.011,0.014 c 2.41,10e-4 4.364,-1.953 4.364,-4.363 V 264.801 c 0,-20.28 16.175,-37.119 36.454,-37.348 10.352,-0.117 19.737,4.031 26.501,10.799 6.675,6.671 10.802,15.895 10.802,26.079 v 117.808 c 0,2.409 1.953,4.362 4.361,4.363 l 57.152,0.014 c 2.41,10e-4 4.364,-1.953 4.364,-4.363 V 241.682 Z"
   id="path2612" />
	</g>
</g></g><g
   inkscape:groupmode="layer"
   id="layer6"
   inkscape:label="Layer 2"
   transform="translate(9.706201,9.706201)"><rect
     style="fill:none;stroke:#ffd700;stroke-width:20;stroke-linecap:round;stroke-linejoin:round;stroke-miterlimit:4;stroke-dasharray:none;stroke-opacity:1"
     id="rect3248"
     width="489.70621"
     height="489.70621"
     x="0.29379904"
     y="0.29379904"
     rx="111.94673"
     ry="111.9464" /><path
     style="fill:none;stroke:#ffd700;stroke-width:20;stroke-linecap:round;stroke-linejoin:miter;stroke-miterlimit:4;stroke-dasharray:none;stroke-opacity:1"
     d="M 113.55442,413.10399 V 192.81613"
     id="path3250"
     sodipodi:nodetypes="cc" /><path
     style="fill:none;stroke:#ffd700;stroke-width:20;stroke-linecap:round;stroke-linejoin:miter;stroke-miterlimit:4;stroke-dasharray:none;stroke-opacity:1"
     d="M 226.52308,413.10399 V 192.81613"
     id="path3252"
     sodipodi:nodetypes="cc" /><path
     style="fill:none;stroke:#ffd700;stroke-width:20;stroke-linecap:round;stroke-linejoin:miter;stroke-miterlimit:4;stroke-dasharray:none;stroke-opacity:1"
     d="m 226.52308,413.10399 v -88.52256 c 0,-45.67959 33.92694,-96.55461 80.20895,-108.95583 46.28199,-12.40123 80.14215,27.30963 80.14215,52.0089 v 145.80525"
     id="path3254"
     sodipodi:nodetypes="cczcc" /><circle
     style="fill:#ffd700;stroke:none;stroke-width:20;stroke-linecap:round;stroke-linejoin:round;stroke-miterlimit:4;stroke-dasharray:none;stroke-opacity:1;fill-opacity:1"
     id="path3258"
     cx="113.23321"
     cy="121.39203"
     r="21.127882" /></g></svg>
