<?xml version="1.0" encoding="UTF-8" standalone="no"?>
<svg
   xmlns:dc="http://purl.org/dc/elements/1.1/"
   xmlns:cc="http://creativecommons.org/ns#"
   xmlns:rdf="http://www.w3.org/1999/02/22-rdf-syntax-ns#"
   xmlns:svg="http://www.w3.org/2000/svg"
   xmlns="http://www.w3.org/2000/svg"
   xmlns:xlink="http://www.w3.org/1999/xlink"
   xmlns:sodipodi="http://sodipodi.sourceforge.net/DTD/sodipodi-0.dtd"
   xmlns:inkscape="http://www.inkscape.org/namespaces/inkscape"
   width="52"
   height="52"
   viewBox="0 0 13.758333 13.758334"
   version="1.1"
   id="svg8"
   inkscape:version="1.0.1 (3bc2e813f5, 2020-09-07)"
   sodipodi:docname="nottelmo-logo.svg">
  <defs
     id="defs2">
    <linearGradient
       inkscape:collect="always"
       id="linearGradient851">
      <stop
         style="stop-color:#000000;stop-opacity:1"
         offset="0"
         id="stop847" />
      <stop
         style="stop-color:#af0061;stop-opacity:1"
         offset="1"
         id="stop849" />
    </linearGradient>
    <inkscape:path-effect
       effect="mirror_symmetry"
       start_point="-12.067158,-3.461739"
       end_point="-12.067158,13.070725"
       center_point="-12.067158,4.804493"
       id="path-effect837"
       is_visible="true"
       lpeversion="1"
       mode="free"
       discard_orig_path="false"
       fuse_paths="false"
       oposite_fuse="false"
       split_items="false" />
    <radialGradient
       inkscape:collect="always"
       xlink:href="#linearGradient851"
       id="radialGradient853"
       cx="26"
       cy="25.519503"
       fx="26"
       fy="25.519503"
       r="26"
       gradientTransform="matrix(0.5369053,0,0,0.5269841,-7.0803714,-6.5692055)"
       gradientUnits="userSpaceOnUse" />
  </defs>
  <sodipodi:namedview
     id="base"
     pagecolor="#ffffff"
     bordercolor="#666666"
     borderopacity="1.0"
     inkscape:pageopacity="0.0"
     inkscape:pageshadow="2"
     inkscape:zoom="8.2116651"
     inkscape:cx="41.357254"
     inkscape:cy="19.065591"
     inkscape:document-units="mm"
     inkscape:current-layer="layer1"
     inkscape:document-rotation="0"
     showgrid="false"
     inkscape:pagecheckerboard="true"
     units="px"
     inkscape:snap-page="true"
     inkscape:window-width="1920"
     inkscape:window-height="1016"
     inkscape:window-x="0"
     inkscape:window-y="27"
     inkscape:window-maximized="1"
     inkscape:snap-global="true" />
  <metadata
     id="metadata5">
    <rdf:RDF>
      <cc:Work
         rdf:about="">
        <dc:format>image/svg+xml</dc:format>
        <dc:type
           rdf:resource="http://purl.org/dc/dcmitype/StillImage" />
        <dc:title />
      </cc:Work>
    </rdf:RDF>
  </metadata>
  <g
     inkscape:label="Layer 1"
     inkscape:groupmode="layer"
     id="layer1">
    <circle
       style="fill:#ffd115;fill-opacity:1;stroke:none;stroke-width:1.09438;stroke-linecap:round;stroke-linejoin:round;stroke-miterlimit:4;stroke-dasharray:none;stroke-opacity:1;paint-order:stroke markers fill"
       id="path5477"
       cx="6.8791666"
       cy="6.8791666"
       r="6.8819647" />
    <path
       id="path833"
       style="fill:url(#radialGradient853);fill-opacity:1;stroke:none;stroke-width:0.479612;paint-order:fill markers stroke"
       d="M 6.8534065,0.75943865 A 6.2349541,6.2349541 0 0 0 0.64421248,6.9943926 6.2349541,6.2349541 0 0 0 5.2000571,12.99844 C 4.9963461,11.381267 4.7850444,9.9245624 4.7869532,9.5924462 c 0.00372,-0.6384425 1.6857859,-3.999609 1.741872,-4.7455343 0.00734,-0.097134 0.153935,-0.027626 0.162056,-0.1166244 0.054871,-0.6009618 0.020919,-1.1721356 0.1882857,-1.0955198 0.1673662,-0.076616 0.1334106,0.494558 0.1882849,1.0955198 0.00816,0.088999 0.1547517,0.01949 0.1620559,0.1166244 0.056085,0.7459253 1.7381996,4.1070915 1.7418721,4.7455343 0.0019,0.332147 -0.2093749,1.7891068 -0.4131031,3.4064618 A 6.2349541,6.2349541 0 0 0 13.114121,6.9943926 6.2349541,6.2349541 0 0 0 6.8791669,0.75943865 a 6.2349541,6.2349541 0 0 0 -0.02576,0 z" />
    <circle
       style="fill:#17e7ff;fill-opacity:1;stroke:none;stroke-width:0.529167;paint-order:fill markers stroke"
       id="circle841"
       cx="-10.687138"
       cy="6.8791666"
       r="6.8791666" />
    <path
       style="fill:#ffffff;fill-opacity:1;stroke:none;stroke-width:0.140358px;stroke-linecap:butt;stroke-linejoin:miter;stroke-opacity:1"
       d="m -8.94337,3.4600961 c -0.05689,0.080538 -0.158452,-0.067032 -0.219017,0.021752 -0.465087,0.6817957 -3.926549,2.9653396 -4.282262,3.5733495 -0.355668,0.6080354 -2.260092,5.1017634 -3.646157,7.5025004 l 2.970538,1.715041 c 1.386066,-2.400737 4.325581,-6.2968542 4.674276,-6.9089162 0.348697,-0.61206 0.595573,-4.7515462 0.953481,-5.4952218 0.04657,-0.096862 -0.132003,-0.1110289 -0.09067,-0.2005503 0.2790984,-0.6044923 0.6264769,-1.1316695 0.4242872,-1.1507946 -0.1176543,-0.1655369 -0.4005142,0.3988898 -0.7844742,0.94284 z"
       id="path843"
       sodipodi:nodetypes="sssccscscss" />
  </g>
</svg>
